# xmcd
#
# Track frame offsets:
#	150
#	13960
#	32072
#	50247
#	65292
#	84450
#	104770
#	120977
#	138060
#	153332
#	173042
#	194422
#
# Disc length: 2839 seconds
#
# Revision: 1
# Processed by: cddbd v1.5.1PL0 Copyright (c) Steve Scherf et al.
# Submitted via: CDex 1.50Beta5
#
DISCID=9f0b150c
DTITLE=CHA-CHA - BEST
DYEAR=1990
DGENRE=Pop
TTITLE0=Beginning
TTITLE1=いわゆるひとつの誤解デス
TTITLE2=僕のせいいっぱい
TTITLE3=ボクらの夢によろしく
TTITLE4=約束
TTITLE5=ぽろり物語
TTITLE6=キスしたい
TTITLE7=泣きたい時には笑っちゃえ
TTITLE8=ファンタジーキッス
TTITLE9=青春のラビリンス
TTITLE10=空色の気持ち
TTITLE11=Catching Dream
EXTD=
EXTT0=
EXTT1=
EXTT2=
EXTT3=
EXTT4=
EXTT5=
EXTT6=
EXTT7=
EXTT8=
EXTT9=
EXTT10=
EXTT11=
PLAYORDER=
